<svg id="Layer_1" data-name="Layer 1" xmlns="http://www.w3.org/2000/svg" viewBox="0 0 300 300"><defs><style>.cls-1{fill:#242327;}</style></defs><title>cw</title><path class="cls-1" d="M82.39,132.14H152.5q51.27,0,102.53,0c13.55,0,21.57,6.67,21.6,17.67s-7.87,18-21.48,18q-83.11.16-166.24,0H83.16c21.17,17.9,39.11,37.88,58.38,56.53,9.24,9,10.55,20.77,3.62,28-8,8.3-18.47,7.55-28.59-2.47q-42.63-42.17-85-84.55c-10.52-10.52-11-19.66-.69-30q43.64-44.1,87.84-87.65c7.86-7.77,19.8-7.64,26.64-.46,6.21,6.52,5.65,18.54-1.82,25.87C123.54,92.68,105.06,113.74,82.39,132.14Z"/></svg>