<svg id="Layer_1" data-name="Layer 1" xmlns="http://www.w3.org/2000/svg" viewBox="0 0 300 300"><defs><style>.cls-1{fill:#f7f8f7;}</style></defs><title>cw</title><path class="cls-1" d="M227,208.62c6,17.52,11.92,35.09,18.14,52.55,2.4,6.73,1.89,12.55-3.75,17.23-4.6,3.82-12.7,3.58-18.43-.71-22.76-17-45.5-34.1-68-51.44-3.79-2.92-6-3.32-10-.23-22,16.93-44.21,33.52-66.41,50.17-7.24,5.42-15,6.15-20.11,2.14-5.43-4.26-6.2-10.61-2.88-19.94q16.17-45.4,32.12-90.9a14.84,14.84,0,0,0,.43-2.76c8-22.33,16.15-44.63,24.09-67,8.18-23,16.11-46.17,24.35-69.2,2.16-6,6.61-9.65,13.36-9.64s11,3.77,13.18,9.85c7.84,21.92,15.5,43.89,23.3,65.82q14.51,40.8,29.12,81.57l1.59,4.17a11.51,11.51,0,0,0,2.53,7.2c.56,4.59,2.46,8.72,4.5,12.79C224.83,203.15,225,206.2,227,208.62Z"/></svg>