<svg id="Layer_1" data-name="Layer 1" xmlns="http://www.w3.org/2000/svg" viewBox="0 0 564.54 144.24"><defs><style>.cls-1{fill:#b66b45;}.cls-2{fill:#0dbf34;}.cls-3{fill:none;}.cls-4{font-size:62px;fill:#f7f8f7;font-family:Rockwell-Regular, Rockwell;}.cls-5{letter-spacing:-0.06em;}.cls-6{letter-spacing:-0.1em;}</style></defs><title>cw</title><path class="cls-1" d="M72.41,137.26a51,51,0,0,1,4.45-18.59A62.18,62.18,0,0,1,92.57,97.5c2.1-1.84,4.12-3.4,6-4.9s3.61-3,5.3-4.56,3.34-3.27,4.92-5a62.44,62.44,0,0,0,4.34-5.32,63,63,0,0,0,3.7-5.86,48.29,48.29,0,0,0,5-13A60.7,60.7,0,0,0,123,51.7a63.28,63.28,0,0,0,.36-7.3,52.74,52.74,0,0,0-2.07-14.65,54.37,54.37,0,0,1,5,14.32,69,69,0,0,1,1.43,15.44,55.79,55.79,0,0,1-2.61,15.81,70,70,0,0,1-2.84,7.58,72.32,72.32,0,0,1-3.78,7.25c-1.38,2.31-2.81,4.54-4.4,6.74s-3.26,4.34-4.93,6.36-3.29,3.88-4.63,5.65a43.8,43.8,0,0,0-3.47,5.31,40.79,40.79,0,0,0-4.36,11.37,28.09,28.09,0,0,0-.29,10.79Z"/><path class="cls-1" d="M74.29,117.41a64.08,64.08,0,0,1-8.65-9.28,66.34,66.34,0,0,1-6.09-9.24,68.33,68.33,0,0,1-4.37-9.81,57.27,57.27,0,0,1-2.7-10.36,63.59,63.59,0,0,1,.08-20.52,70,70,0,0,1,5.8-18.82,67.7,67.7,0,0,0-.89,19A56.32,56.32,0,0,0,61.94,76a45.86,45.86,0,0,0,4.25,7.58,54,54,0,0,0,5.5,6.72A49.84,49.84,0,0,0,78,95.82c2.2,1.59,5.91,4.25,8.1,5.17l-4.76,5.75a37.45,37.45,0,0,0-3.14,4.37Z"/><path class="cls-1" d="M51.68,59.64c-1.67-1.92-6.42-5.21-7.94-7.23-.76-1-1.5-2-2.22-3.07l-2.07-3.05A41.85,41.85,0,0,0,29,36.36a43.69,43.69,0,0,1,13,7.58l2.75,2.5c.9.81,1.82,1.59,2.75,2.35,1.85,1.53,3.44,2.75,5.38,4.13Z"/><path class="cls-1" d="M61.4,73.57l2.74-4.14a29.71,29.71,0,0,1,3.19-4.07A50.58,50.58,0,0,1,75.08,59a49.22,49.22,0,0,0-6,7.79A31.61,31.61,0,0,0,66.87,71l-3.32,7.16Z"/><circle class="cls-2" cx="114.5" cy="115.58" r="8.09"/><circle class="cls-2" cx="131.23" cy="98.57" r="9.62"/><circle class="cls-2" cx="142.25" cy="72.78" r="10.87"/><circle class="cls-2" cx="142.25" cy="46.3" r="10.32"/><circle class="cls-2" cx="132.93" cy="25.13" r="7.39"/><circle class="cls-2" cx="115.2" cy="15.21" r="6.41"/><circle class="cls-2" cx="108.79" cy="32.52" r="8.22"/><circle class="cls-2" cx="107.39" cy="54.24" r="8.64"/><circle class="cls-2" cx="79.23" cy="73.14" r="7.4"/><circle class="cls-2" cx="85.19" cy="58.96" r="2.75"/><circle class="cls-2" cx="90.37" cy="51.27" r="1.47"/><circle class="cls-2" cx="82.44" cy="47" r="3.32"/><circle class="cls-2" cx="68.36" cy="48.75" r="5.64"/><circle class="cls-2" cx="71.66" cy="32.28" r="5.73"/><circle class="cls-2" cx="74.92" cy="16.15" r="4.31"/><circle class="cls-2" cx="59.52" cy="19.89" r="6.02"/><circle class="cls-2" cx="47.22" cy="33.35" r="7.14"/><circle class="cls-2" cx="30.37" cy="26.65" r="6.07"/><circle class="cls-2" cx="15.01" cy="25.92" r="3.84"/><circle class="cls-2" cx="18.85" cy="41.69" r="5.88"/><circle class="cls-2" cx="30.85" cy="53.95" r="7"/><circle class="cls-2" cx="40.71" cy="69.16" r="5.3"/><circle class="cls-2" cx="44.46" cy="83.59" r="4.86"/><rect class="cls-3" x="239.42" y="129.11" width="31.47" height="9.27"/><text class="cls-4" transform="translate(177.13 95.43)">C<tspan class="cls-5" x="51.1" y="0">r</tspan><tspan x="75.47" y="0">op</tspan><tspan class="cls-6" x="155.45" y="0">W</tspan><tspan x="219.12" y="0">atch</tspan></text></svg>