<svg id="Layer_1" data-name="Layer 1" xmlns="http://www.w3.org/2000/svg" viewBox="0 0 300 300"><defs><style>.cls-1{fill:#f7f8f7;}</style></defs><title>cw</title><path class="cls-1" d="M240.65,59.94c.22,4.5-1.19,8.15-2.07,11.88-4.1,17.46,7.2,36,24.65,40.33,14.53,3.64,16.67,6,18.88,20.89a122.1,122.1,0,0,1-.74,37.92c-1.4,8.46-6.11,13.33-14.64,14.65-24.25,3.76-35.82,29.15-27.8,46.74,4,8.69,1,15.38-6.65,21.4A132.54,132.54,0,0,1,202,271.87c-9.79,4.11-16.1,2.72-23-5.19-15.6-17.87-40.11-17.4-54.79,1.05-6.4,8-11.94,9.56-21.47,6A126,126,0,0,1,68,254c-8.36-6.62-9.85-12-6.16-21.94,8.33-22.53-4.94-44.53-28.74-47.65-8.94-1.17-14.12-7-15.43-18.62-1.57-14-1.36-28,2.23-41.82,1.78-6.84,6.63-10.8,14.75-12,18.24-2.65,31.54-18.11,30.89-35.68-.16-4.42-1.92-8.39-3.06-12.5-2.08-7.48,0-13.44,5.77-18.16A122.26,122.26,0,0,1,104.31,25.5c6.94-2.51,13.28-.46,18.53,5.16,16.73,17.92,38.11,17.94,54.58.23,6.19-6.66,12.23-7.76,20.84-4.46A133.62,133.62,0,0,1,234,47.14C238.38,50.62,241.07,54.77,240.65,59.94Zm-46.47,89.9c1-23.22-18.69-43.81-43.76-44.33C126.34,105,105.61,126,105.64,150a44.15,44.15,0,0,0,44.23,43.91C175.07,194,194.18,175,194.18,149.84Z"/></svg>