<svg id="Layer_1" data-name="Layer 1" xmlns="http://www.w3.org/2000/svg" viewBox="0 0 300 300"><defs><style>.cls-1{fill:#424744;}</style></defs><title>cw</title><path class="cls-1" d="M85.78,215.1c0-6.77-11-26.07-12.25-26.07s-12.26,19.3-12.26,26.07a12.26,12.26,0,1,0,24.51,0Z"/><path class="cls-1" d="M163.78,215.1c0-6.77-11.05-26.07-12.25-26.07s-12.26,19.3-12.26,26.07a12.26,12.26,0,1,0,24.51,0Z"/><path class="cls-1" d="M124,246.82c0-6.77-11-26.07-12.25-26.07s-12.26,19.3-12.26,26.07a12.26,12.26,0,0,0,24.51,0Z"/><path class="cls-1" d="M201.68,246.82c0-6.77-11.05-26.07-12.26-26.07s-12.25,19.3-12.25,26.07a12.26,12.26,0,0,0,24.51,0Z"/><path class="cls-1" d="M240.68,215.1c0-6.77-11.05-26.07-12.26-26.07s-12.25,19.3-12.25,26.07a12.26,12.26,0,1,0,24.51,0Z"/><path class="cls-1" d="M69.82,154.23s-28.21-5.14-29.17-35.53C39.53,83.32,77.62,80,77.62,80s11-36.32,50.86-38.93c34.78-2.28,45.92,25.06,45.92,25.06s13.21-4.89,31.47,3.94c16.67,8.07,19.66,21.2,19.66,21.2s32.37,3.25,33.8,30.91c1.29,24.72-26,32.06-26,32.06Z"/></svg>