<svg id="Layer_1" data-name="Layer 1" xmlns="http://www.w3.org/2000/svg" viewBox="0 0 300 300"><defs><style>.cls-1{fill:#f7f8f7;}</style></defs><title>cw</title><path class="cls-1" d="M149.79,245.79q-53.76,0-107.52,0c-4.52,0-9.09.46-11.33-4.92-2.11-5.09,1.48-7.89,4.21-11,22-24.71,32.29-53.84,32.7-86.69.17-14.18-.86-28.39,4.25-42.17,8.22-22.15,22.69-38.68,44.27-47.93,7.86-3.36,10.52-7.06,10.17-15.37-.48-11.68,7-20.6,17.6-23.2a24,24,0,0,1,26.49,11.08c3.07,5.22,3.83,11,3.26,16.79-.5,5,1.47,7.23,6.18,9.1,32.36,12.9,52.5,42.58,52.27,77.52-.15,22,.67,43.66,9.48,64.32A124.7,124.7,0,0,0,265,229.87c3,3.24,5.51,6.57,3.76,11.24-1.9,5.07-6.36,4.7-10.63,4.69Zm-1-199.88c4.85-.19,10.09,2,9.58-5.8C158,34.36,156,30,150.05,29.88c-6.2-.13-7.93,4.52-8.39,10.1C141.11,46.59,145.07,46.41,148.75,45.91Z"/><path class="cls-1" d="M269.87,126.35c-.1,4.76-1.94,9.16-7.74,9.58s-8.52-3.73-8.61-9.06c-.46-27.6-10.45-51.17-29.36-71.14-3.75-4-4.66-8.72-.19-12.49s8.85-1.86,12.5,2.06c18.52,19.88,29.78,43.11,32.42,70.3C269.22,119,269.51,122.41,269.87,126.35Z"/><path class="cls-1" d="M30.15,124.19c2-30.56,12.33-56.39,32.63-78,2.82-3,5.71-5.57,10.23-4.52,6.51,1.52,7.9,8.39,2.53,14.19-12,13-20.79,27.73-25.49,44.86A114.33,114.33,0,0,0,46.4,124c-.35,5.91-.68,11.51-8.23,12C32.77,136.34,29.88,131.32,30.15,124.19Z"/><path class="cls-1" d="M149.51,261.8c10.49,0,21,.14,31.47-.06,4.94-.09,5.5,1.56,3,5.4-7.87,12.14-19.17,18.76-33.44,19-14.64.24-26.22-6.43-34.42-18.66-2.89-4.31-1.56-5.84,3.46-5.73C129.57,262,139.54,261.8,149.51,261.8Z"/></svg>