<svg id="Layer_1" data-name="Layer 1" xmlns="http://www.w3.org/2000/svg" viewBox="0 0 300 300"><defs><style>.cls-1{fill:#eaeaeb;}</style></defs><title>cw</title><path class="cls-1" d="M150.2,57.71c36.71,0,73.41-.08,110.12,0,9.95,0,21.5-.81,21,14.05-.45,13.32-10.94,12.83-20.5,12.83q-111,0-222,0c-9.67,0-19.9.23-20.15-13.16s10-13.74,19.66-13.75Q94.28,57.64,150.2,57.71Z"/><path class="cls-1" d="M150.07,136.75c25,0,50,.13,75-.07,9.34-.08,16.7,2.72,17,12.94s-6.92,14-16.21,14q-75.84.09-151.67,0c-9.22,0-16.47-3.53-16.1-14s7.84-13,17-12.89C100.09,136.84,125.08,136.75,150.07,136.75Z"/><path class="cls-1" d="M150.07,242.31q-18.25,0-36.51,0c-9.27,0-16.44-3.4-16.27-13.72.16-9.19,6.65-13,15.27-13q37.38-.15,74.75,0c8.67,0,15.08,3.74,15.33,12.94.29,10.36-6.73,13.82-16.07,13.83Z"/></svg>