<svg id="Layer_1" data-name="Layer 1" xmlns="http://www.w3.org/2000/svg" viewBox="0 0 150.02 300"><defs><style>.cls-1{fill:#d0d0d0;}</style></defs><title>cw</title><path class="cls-1" d="M21.23,14.29a9.07,9.07,0,0,1,7.36,3.55Q81,79.58,133.4,141.24c4.45,5.24,4.39,8.06-.16,13.59Q84.84,213.69,36.38,272.49c-2.59,3.16-5.09,6.39-7.8,9.44-3.81,4.29-8.58,4.95-12.2,1.89-3.89-3.3-4.07-8.13-.25-12.78q25-30.47,50.13-60.88c16.16-19.61,32.25-39.28,48.6-58.73,2.54-3,1.78-4.62-.31-7.06Q68.26,90,22.07,35.62c-2.29-2.7-4.73-5.29-6.9-8.1a8,8,0,0,1-.81-9A7.17,7.17,0,0,1,21.23,14.29Z"/></svg>