<svg id="Layer_1" data-name="Layer 1" xmlns="http://www.w3.org/2000/svg" viewBox="0 0 300 300"><defs><style>.cls-1{fill:#424744;}</style></defs><title>cw</title><path class="cls-1" d="M185.94,24.44c-5.87,0-55.65,69.31-77.39,123l1.41,1c3.57,2.48,5.58,3.79,8.83,4.27,6.4.93,14.22-2.18,23.23-9.28A13.12,13.12,0,0,1,158.25,164c-1.9,1.5-3.79,2.86-5.67,4.13,7.62,1.29,13.07,4.38,17.52,6.93,4.14,2.37,6.46,3.63,9.84,4,6.27.66,13.68-2.39,22-9.1a13.12,13.12,0,1,1,16.5,20.41c-10.55,8.53-21.08,13.44-31.42,14.7.61.41,1.22.83,1.83,1.27a13.12,13.12,0,0,1-15.41,21.25c-7.63-5.54-14.62-8.18-20.86-7.94a13.12,13.12,0,0,1,4.19,22.71c-8.54,6.87-17.11,11.39-25.63,13.53A88.14,88.14,0,0,0,274.78,187.4C274.78,138.71,193.47,24.44,185.94,24.44Z"/><path class="cls-1" d="M120.71,169.43a32.63,32.63,0,0,1-4.65-.33c-7.27-1.07-11.86-4.26-15.9-7.07s-7.39-5.12-13-5.16-9.13,2.27-13.43,5.2-9,6.13-16.46,7C46.52,170.42,35,166.14,23,156.4A3.5,3.5,0,0,1,27.43,151c10.44,8.5,20.2,12.26,29,11.19,5.78-.71,9.47-3.22,13.37-5.87,4.67-3.19,9.54-6.47,17.42-6.42s12.43,3.29,16.93,6.42c3.74,2.6,7.28,5.05,12.92,5.88,9.13,1.34,19.41-2.44,30.58-11.23a3.5,3.5,0,0,1,4.33,5.5C141,165.08,130.5,169.43,120.71,169.43Z"/><path class="cls-1" d="M56.37,195.92H56.2a52.82,52.82,0,0,1-32.86-11.75,3.5,3.5,0,1,1,4.41-5.44,45.72,45.72,0,0,0,28.47,10.19h.15a46.35,46.35,0,0,0,30.72-12,3.5,3.5,0,1,1,4.72,5.17A53.48,53.48,0,0,1,56.37,195.92Z"/><path class="cls-1" d="M181.34,195.77a34,34,0,0,1-3.5-.19c-7-.75-11.74-3.47-16.33-6.09-4.16-2.39-8.08-4.64-13.67-5.21-8.71-.89-18.06,2.66-27.78,10.54a3.5,3.5,0,0,1-4.4-5.44c11.21-9.08,22.28-13.14,32.89-12.06,7.07.72,11.83,3.45,16.44,6.09,4.14,2.38,8,4.62,13.6,5.21,8.91,1,18.69-2.81,29.06-11.18a3.5,3.5,0,1,1,4.4,5.44C201.45,191.44,191.14,195.77,181.34,195.77Z"/><path class="cls-1" d="M54.44,221.63c-13.59,0-24.76-7.53-30.49-12.32a3.5,3.5,0,1,1,4.49-5.37c5.43,4.55,16.48,12,29.31,10.5a30.36,30.36,0,0,0,5.12-1,3.5,3.5,0,1,1,2,6.71,37.36,37.36,0,0,1-6.31,1.28A35.84,35.84,0,0,1,54.44,221.63Z"/><path class="cls-1" d="M116.28,220.85c-9.62,0-19.47-4-29.33-11.81a3.5,3.5,0,1,1,4.36-5.48c9.29,7.4,18.34,10.83,26.94,10.23,5.81-.42,10-2.58,14.34-4.88,4.76-2.49,9.69-5.06,16.88-5.77,10.67-1,21.9,2.65,33.38,11a3.5,3.5,0,0,1-4.1,5.67c-10.06-7.3-19.68-10.55-28.6-9.68-5.84.57-10,2.72-14.32,5-4.82,2.52-9.82,5.13-17.08,5.65C117.93,220.83,117.11,220.85,116.28,220.85Z"/><path class="cls-1" d="M54.75,248.57c-9.64,0-19.57-4.3-29.54-12.82a3.5,3.5,0,0,1,4.54-5.32c9.13,7.8,18,11.53,26.28,11.11,5.87-.3,9.69-2.54,13.74-4.92,4.63-2.72,9.9-5.8,18.1-5.74,7.57.07,12.3,2.77,16.47,5.16,3.63,2.08,7.07,4.05,12.54,4.54,9.08.83,18.88-2.94,29.13-11.18a3.5,3.5,0,1,1,4.38,5.45c-11.7,9.42-23.19,13.7-34.14,12.7-7-.63-11.45-3.18-15.39-5.43s-7.31-4.19-13-4.24h-.22c-6.15,0-9.92,2.21-14.28,4.77s-9.35,5.49-16.92,5.88C55.84,248.56,55.29,248.57,54.75,248.57Z"/></svg>