<svg id="Layer_1" data-name="Layer 1" xmlns="http://www.w3.org/2000/svg" viewBox="0 0 300 300"><defs><style>.cls-1{fill:#f7f8f7;}</style></defs><title>cw</title><path class="cls-1" d="M217.05,118c-5.69-4-11.35-8.08-17.57-11.23-1.83-.92-1.94-2.53-1.94-4.25,0-5.48-.22-11,0-16.42.91-19.66-9.17-32.07-26.25-39.68-19.7-8.77-44.87-3.9-59,11.2a34.78,34.78,0,0,0-10,24.72c0,6.54-.1,13.08,0,19.61.07,2.76-.74,4.45-3.35,5.72a87.72,87.72,0,0,0-13.82,8.79c-.72.53-1.4,1.42-2.36,1s-.64-1.59-.63-2.43c0-12.62-.79-25.31.28-37.84,1.82-21.22,13.74-36.22,32.07-46.27,30.86-16.92,74.28-9.41,94.29,21a54.1,54.1,0,0,1,9,28.73c.31,11.54.09,23.1.1,34.66A3.06,3.06,0,0,1,217.05,118Z"/><path class="cls-1" d="M243.55,211.84c.12-9.88-.14-19.69-2.29-29.46-13.34-60.89-81.91-92.31-136.17-62-27.49,15.38-43.64,39-47.76,70.35-1.94,14.81-.66,29.78-.72,44.67C56.5,259.93,74.76,278,99.24,278H201.49a41.48,41.48,0,0,0,41.59-36.51C244.32,231.63,243.44,221.72,243.55,211.84ZM223.37,234.6c-.18,14.5-9.08,23.22-23.48,23.24q-25.09,0-50.18,0t-50.18,0c-13.8,0-22.93-9-22.79-22.85.15-14.42-1-28.89.74-43.27,4.68-38.66,43.15-67.79,81.86-62.07,32.12,4.75,55.7,26.8,62.61,58.54a75.28,75.28,0,0,1,1.4,15Q223.59,218.86,223.37,234.6Z"/><path class="cls-1" d="M209,200.86a57.06,57.06,0,0,0-8.82-29.78c-12.47-20.24-36.95-31.32-59.92-27.17-24.91,4.5-43.77,23-48.37,47.28-2.65,14-1,28.21-1.33,42.32-.2,7.45,2.39,9.89,9.73,9.9q24.87,0,49.74,0,25.1,0,50.19,0c6.45,0,8.78-2.32,8.81-8.8C209.13,223.36,209.16,212.11,209,200.86ZM180,190.06Q165.53,204.61,150.92,219c-5.13,5-10.48,5-15.61.05q-8.17-7.93-16.09-16.14c-3.08-3.22-4.12-7-2-11.29a10,10,0,0,1,9-5.89c3.87-.06,6.51,2.1,9.06,4.63,7.9,7.85,7.94,7.84,16-.11,4.86-4.8,9.63-9.69,14.51-14.48s10.79-4.91,15-.68S184.65,185.35,180,190.06Z"/></svg>