<svg id="Layer_1" data-name="Layer 1" xmlns="http://www.w3.org/2000/svg" viewBox="0 0 300 300"><defs><style>.cls-1,.cls-2{fill:none;stroke:#f7f8f7;stroke-linejoin:round;stroke-width:7.37px;}.cls-2{stroke-linecap:round;}</style></defs><title>cw</title><rect class="cls-1" x="24.22" y="244.91" width="251.55" height="19.72"/><rect class="cls-1" x="117.7" y="205.75" width="66.16" height="19.72"/><path class="cls-1" d="M91.61,186.73H208.89a9,9,0,0,1,9,9v49.21a0,0,0,0,1,0,0H82.64a0,0,0,0,1,0,0V195.69A9,9,0,0,1,91.61,186.73Z"/><path class="cls-1" d="M157.64,121.38v64.55a.8.8,0,0,1-.79.8h-14a.8.8,0,0,1-.79-.8V121.38"/><path class="cls-1" d="M171,100.84a20.54,20.54,0,1,0-20.54,20.54A20.53,20.53,0,0,0,171,100.84Z"/><path class="cls-2" d="M184.68,69.76a44.7,44.7,0,0,1,12.94,30.86c.09,18-11.05,29.39-13.07,31.38"/><path class="cls-2" d="M203.44,54.18c3.71,4.07,17.88,20.54,18.35,45.78.52,28.38-16.68,46.69-20,50.09"/><path class="cls-2" d="M219.31,35.37c4.32,4.27,27.62,28.17,27.54,66.17-.09,37.73-23.17,61.43-27.54,65.75"/><path class="cls-2" d="M115.32,69.76a44.7,44.7,0,0,0-12.94,30.86c-.09,18,11.05,29.39,13.07,31.38"/><path class="cls-2" d="M96.56,54.18C92.85,58.25,78.68,74.72,78.21,100c-.52,28.38,16.68,46.69,20,50.09"/><path class="cls-2" d="M80.69,35.37c-4.32,4.27-27.62,28.17-27.54,66.17.09,37.73,23.17,61.43,27.54,65.75"/></svg>