<svg id="Layer_1" data-name="Layer 1" xmlns="http://www.w3.org/2000/svg" viewBox="0 0 300 300"><defs><style>.cls-1{fill:#f7f8f7;}</style></defs><title>cw</title><path class="cls-1" d="M152.2,241.63c-37,0-72.92-.07-108.8.08-4.53,0-5.43-1.92-5.43-5.88q.12-87.77,0-175.53c0-4.71,1.8-6.27,6.26-5.91,3.24.27,6.52,0,9.78.06,4.82,0,9.61-1.21,11.53,6,1,3.85,6,5.66,10.64,5.65q39.16-.07,78.31,0c5.31,0,9.59-2,11.27-7.08,1.46-4.35,4.17-4.61,7.92-4.62,19-.06,19-.13,19,18.61,0,29.64-.16,59.27.12,88.9.07,6.38-2,7.63-7.22,5-5.05-2.55-9-1.37-12.63,2.78-2.63,3-5.85,5.48-8.64,8.35-3.79,3.9-5.19,8.18-2.89,13.67,2.79,6.66.35,11.81-6.39,14.78-2.89,1.28-5.9,3.08-6.12,6.1C148.22,222,145.78,231.81,152.2,241.63Zm16-113.88c0-6.52-.28-13.06.09-19.56.29-5-1.42-8.08-6-10-14.92-6.36-29.78-12.83-44.66-19.28a5.9,5.9,0,0,0-5,.25C98,85.53,83.4,92,68.65,98.06c-4.42,1.82-6,4.44-5.84,9.12.28,11.53.47,23.08,0,34.6C62,161,68.37,177.48,82.06,190.44c12.22,11.56,26.18,20.82,44.44,14.24,14.15-5.09,25-14.59,32.66-27.42C168.33,162,169.12,145,168.21,127.75Z"/><path class="cls-1" d="M173,195.49c-.19-.46-.5-1.14-.73-1.84a15.29,15.29,0,0,1,7.69-18,3.35,3.35,0,0,1,3.5.11c7.79,5.06,14.13-.94,21-2.79,1.05-.29,2.53-1.45,2.66-2.36,1.3-9.31,8.09-8.12,14.61-8.21,4.14-.06,6.31,1,7.53,5.26,1.79,6.18,15.21,11.66,21.36,9.16,3.24-1.31,6.78-3.38,9.08,1,2.38,4.53,11.7,6.32,5.79,14.3-2,2.64-1.68,5.56.12,8.26,3.62,5.4,3.86,12.74,12.52,15.17,4.93,1.39,1.29,9,2.12,13.66.57,3.2-1.63,4.07-4.25,5-7.85,2.83-13.32,16.08-9.61,23.49,1.46,2.91,1.54,4.47-1.05,7-5.14,5-9,11.42-17.83,5.53-3-2-17.34,6.73-18.39,10.61-1,3.69-2.72,5.95-6.75,5.09-4.79-1-11.13,3.26-13.93-4.75-2.34-6.7-15.72-12.74-22-9.64-7.45,3.65-9.37-2.88-13.45-5.78s-3-6.16-1.46-9.85c2.52-5.89-3.24-19.22-9.51-21.26-4.24-1.39-5.59-3.91-4.82-7.83.87-4.42-2.91-10.25,4.14-12.87C165.82,212.23,173.25,200.21,173,195.49Zm45.14,57.68c16.16.11,29.49-12.73,29.73-28.63s-13.54-29.88-29.55-29.76c-15.26.12-28.62,13.48-28.83,28.83A29.08,29.08,0,0,0,218.14,253.17Z"/><path class="cls-1" d="M19.24,147.56q0-48.93,0-97.86c0-11.6,3.18-14.8,14.63-14.86,8.27,0,16.56.22,24.82-.1,4.26-.17,4.94,1.65,5,5.3s-.56,5.6-4.87,5.28c-5-.38-10-.13-15-.08-10.8.09-14.89,4.12-15,15.12-.11,13.54,0,27.1,0,40.65q0,66.24,0,132.48c0,13.44,3.51,17,16.76,17,36.87,0,73.74,0,110.6.08,2.3,0,6.62-1.66,6.33,2.52-.23,3.39-.71,8-6.73,8-41.88-.18-83.77,0-125.65-.19-7.43,0-10.79-4.42-10.8-13.2Q19.2,197.63,19.24,147.56Z"/><path class="cls-1" d="M115.67,57.14c-11.77,0-23.54-.23-35.29.11-5.68.16-8.59-1.36-8-7.53.68-6.67-2.69-14.88,1.46-19.7s12.25-1.37,18.6-1.62c3.24-.13,5.06-1.11,6.23-4,5.57-13.93,27.53-14.17,33.48.16,1.9,4.58,5.26,3.7,8.61,3.72,17.38.09,17.38.07,17.38,17.14,0,11.74,0,11.74-11.72,11.74ZM120.17,29c-.2-3-1.94-4.61-4.81-4.56-3.4.06-4.82,2.2-4.56,5.47.24,3.1,2.3,4.49,5.07,4.21A4.42,4.42,0,0,0,120.17,29Z"/><path class="cls-1" d="M201.84,157.24c0-32.64,0-63.74,0-94.84,0-13.92-3.28-17.16-17.29-17.17-3.77,0-7.54-.16-11.3,0-3.93.22-6.39,0-6.37-5.35,0-5.65,3.09-5.14,6.72-5.11,8.53.07,17.07-.14,25.6.07s12.46,3.93,12.49,12.56c.15,33.66-.11,67.31.19,101C211.94,156.27,205,152.82,201.84,157.24Z"/><path class="cls-1" d="M159.12,130.54c.24,13.06.47,26-5.78,38.2C146.08,183,135,192.2,120,197.17c-4.55,1.52-8.86.17-13.17-1.39-19.62-7.06-34.53-27.36-34.95-48.13-.24-12.05,0-24.11-.15-36.16-.06-3.51,1-5.26,4.42-6.63,12.28-5,24.41-10.31,36.53-15.63a5.54,5.54,0,0,1,5-.23c12.59,5.53,25.17,11.11,37.89,16.34,2.94,1.21,3.65,2.81,3.59,5.62C159,117.48,159.12,124,159.12,130.54Zm-66.89,4.89c-2.71-.1-5.15.83-6.34,3.21-1.4,2.79-1.52,5.77,1,8.32,5.08,5.15,10,10.43,15.17,15.52,4,3.94,8,3.35,11.81-.48q14.25-14.42,28.51-28.83c3.45-3.48,4.85-7.6,1-11.16-3.68-3.41-7.76-2.14-11.22,1.42-6.45,6.63-13.29,12.91-19.45,19.81-3.8,4.26-6.29,4.34-10,0C99.82,140.06,97.56,135.56,92.23,135.43Z"/></svg>