<svg id="Layer_1" data-name="Layer 1" xmlns="http://www.w3.org/2000/svg" viewBox="0 0 300 300"><defs><style>.cls-1{fill:#fe5e5e;}.cls-2{fill:#f7f8f7;}</style></defs><title>cw</title><path class="cls-1" d="M149.75,185.18a35.89,35.89,0,0,1-35.51-35.37c-.19-18.78,16.47-35.38,35.59-35.46a35.77,35.77,0,0,1,35.67,35.23A35.39,35.39,0,0,1,149.75,185.18Z"/><path class="cls-2" d="M285.74,150.09c-.13,36.94-13.24,68.56-39,95-4,4.08-8.61,4.32-11.78,1.13s-3-8.64.78-12.62a121.45,121.45,0,0,0,23.38-33.91c8.69-18.94,11.7-38.88,10.19-59.54-2.06-28.29-13.39-52.51-32.64-73.17-4.29-4.61-5.18-9.78-2.14-13,3.55-3.75,9-3,13.82,2.16C272.92,82.62,285.92,113.72,285.74,150.09Z"/><path class="cls-2" d="M14.26,154.72c.11-41.2,12.72-72.31,37.25-98.64,3.2-3.44,6.64-5.94,11.8-3.4,4,2,4.09,5.16,3.69,8.74a7,7,0,0,1-2.37,4.12A117.81,117.81,0,0,0,35,115.38,120.08,120.08,0,0,0,64,233.46c4,4.21,4.42,9.13,1.18,12.51s-8,3.28-12.24-1.11C27.1,218.37,14.4,186.51,14.26,154.72Z"/><path class="cls-2" d="M83.44,75.93c2.91.09,5.55.36,6.89,3.76a9.17,9.17,0,0,1-2.06,10.58c-13.45,14-21.4,30.53-23.47,49.8q-4.26,39.62,23,68.81a14.8,14.8,0,0,1,2.69,4c1.71,3.83.8,7.4-2.45,9.81s-6.82,2.16-9.92-.94C54.28,197.9,45.46,169,49.34,135.91c2.6-22.25,12.33-41,27.75-57.11A8,8,0,0,1,83.44,75.93Z"/><path class="cls-2" d="M251.54,150.15c-.2,27.29-9.49,50.84-28.61,70.5-3.75,3.86-7.47,5-11.69,1.49-3.88-3.27-3.65-8.77.59-13,9.71-9.71,16.83-21.15,20.31-34.25,8.13-30.54,2.81-58.43-18.52-82.54-1-1.06-2.06-2-2.89-3.15-3-4.07-2.88-10.12.78-12,3.89-2,7.83-2,11.47,1.83C242.15,99.37,251.61,122.65,251.54,150.15Z"/><path class="cls-2" d="M82.35,150.12c0-18.58,6.52-34.48,19.4-47.82,3.1-3.22,6.88-4.14,10.36-1.31s4.92,6.65,2,10.8c-2,2.82-4.52,5.23-6.42,8.09-14.13,21.22-12.4,45.75,4.49,65.18,4.16,4.78,4.37,9.55.57,12.95-3.57,3.18-8,2.48-12.3-2C89,184.24,82.4,167.47,82.35,150.12Z"/><path class="cls-2" d="M217.3,149c.21,18.18-5.55,33.61-17.53,46.66-4.5,4.9-8.86,5.61-12.71,2.18s-4-7.8.73-12.75c18.34-19.19,18.44-51.26.41-69.88-2.62-2.71-5.25-5.89-3.4-10.36,2.56-6.18,9-7.29,13.78-2.26C211,115.78,217.43,131.37,217.3,149Z"/></svg>